<?xml version="1.0" standalone="no"?>
<!DOCTYPE svg PUBLIC "-//W3C//DTD SVG 20010904//EN"
 "http://www.w3.org/TR/2001/REC-SVG-20010904/DTD/svg10.dtd">
<svg version="1.0" xmlns="http://www.w3.org/2000/svg"
 width="768.000000pt" height="768.000000pt" viewBox="0 0 768.000000 768.000000"
 preserveAspectRatio="xMidYMid meet">

<g transform="translate(0.000000,768.000000) scale(0.100000,-0.100000)"
fill="#000000" stroke="none">
<path d="M3803 6748 c-45 -50 -57 -88 -56 -188 0 -77 4 -103 22 -137 44 -88
100 -92 143 -11 20 38 23 58 23 158 0 98 -3 119 -20 145 -40 60 -77 71 -112
33z"/>
<path d="M3494 6672 c-38 -25 -45 -110 -14 -175 58 -121 224 -234 245 -166 14
44 -10 152 -53 234 -37 71 -139 133 -178 107z"/>
<path d="M4092 6640 c-54 -39 -86 -89 -112 -173 -38 -124 -13 -183 63 -149 48
22 143 115 169 166 23 46 28 146 8 171 -21 26 -82 19 -128 -15z"/>
<path d="M3262 6457 c-12 -13 -22 -31 -22 -41 0 -31 39 -93 80 -129 74 -63
224 -104 265 -73 20 15 20 15 -9 71 -38 73 -124 151 -196 176 -71 25 -92 24
-118 -4z"/>
<path d="M4294 6455 c-63 -31 -175 -142 -193 -191 -12 -34 -12 -39 5 -51 38
-29 169 5 256 65 72 49 110 148 72 186 -22 23 -81 19 -140 -9z"/>
<path d="M2445 6220 c-81 -38 -135 -125 -135 -216 0 -61 49 -163 97 -203 105
-86 284 -78 369 17 34 39 58 123 49 180 -14 94 -82 186 -164 223 -58 25 -161
25 -216 -1z m206 -146 c10 -9 23 -32 29 -50 27 -81 -36 -147 -119 -124 -50 13
-72 40 -78 93 -4 36 -1 48 21 74 15 18 37 33 49 35 30 5 76 -8 98 -28z"/>
<path d="M3164 6229 c-17 -5 -39 -18 -49 -29 -16 -18 -17 -23 -5 -45 32 -61
176 -125 279 -125 53 0 120 21 132 42 13 21 -19 64 -68 90 -63 34 -194 78
-230 77 -15 0 -42 -5 -59 -10z"/>
<path d="M4355 6217 c-200 -75 -249 -137 -134 -171 67 -20 107 -20 177 0 108
30 203 105 187 146 -9 24 -72 48 -123 47 -26 0 -74 -10 -107 -22z"/>
<path d="M5014 6212 c-86 -48 -124 -101 -146 -203 -40 -193 165 -331 358 -239
54 26 83 53 121 113 21 34 25 51 25 118 -1 87 -20 136 -69 179 -54 48 -87 60
-165 60 -61 0 -81 -5 -124 -28z m170 -143 c37 -43 36 -98 -2 -141 -25 -27 -36
-32 -81 -32 -68 -1 -91 23 -91 96 0 41 5 54 29 79 24 23 38 29 74 29 38 0 49
-5 71 -31z"/>
<path d="M3772 6217 c-85 -31 -142 -114 -142 -208 0 -114 109 -220 224 -219
54 1 138 50 171 100 26 39 29 53 29 115 0 48 -6 81 -18 104 -50 95 -167 143
-264 108z"/>
<path d="M3260 5971 c-100 -24 -170 -72 -170 -116 0 -85 171 -101 316 -29 116
57 148 105 88 133 -33 15 -188 23 -234 12z"/>
<path d="M4210 5973 c-91 -19 -54 -82 91 -155 58 -29 73 -32 154 -32 93 0 135
14 149 50 11 29 -22 70 -84 103 -57 30 -69 33 -173 36 -62 2 -123 1 -137 -2z"/>
<path d="M3465 5801 c-100 -36 -174 -96 -202 -163 -30 -71 -9 -108 59 -108 90
0 198 81 247 185 46 98 10 127 -104 86z"/>
<path d="M4105 5797 c-9 -36 1 -64 46 -123 56 -76 116 -121 184 -139 52 -13
61 -13 82 0 28 19 31 74 5 122 -35 65 -173 146 -274 160 -33 5 -38 3 -43 -20z"/>
<path d="M3649 5710 c-23 -17 -106 -121 -152 -190 -25 -36 -22 -95 5 -120 12
-11 25 -20 29 -20 23 0 83 35 116 69 64 65 102 206 69 256 -20 30 -32 31 -67
5z"/>
<path d="M3977 5712 c-39 -43 -8 -179 58 -254 53 -61 127 -85 159 -52 42 41
-2 149 -102 253 -38 39 -76 71 -84 71 -8 0 -22 -8 -31 -18z"/>
<path d="M1912 5671 c-95 -69 -77 -211 33 -256 53 -22 94 -13 144 33 36 32 43
44 47 87 7 65 -17 112 -71 142 -56 32 -103 30 -153 -6z"/>
<path d="M5614 5681 c-77 -36 -106 -143 -56 -211 23 -31 89 -70 120 -70 35 0
98 36 123 72 30 42 31 117 3 155 -51 67 -120 87 -190 54z"/>
<path d="M3807 5653 c-37 -42 -57 -112 -57 -206 0 -82 3 -95 30 -144 l30 -53
-42 0 c-116 -1 -333 -57 -444 -116 -172 -91 -343 -271 -424 -447 -72 -155
-108 -370 -89 -531 54 -462 388 -842 809 -921 19 -3 50 -11 68 -16 l32 -11 0
-81 c1 -78 11 -124 50 -212 20 -46 18 -134 -5 -175 -49 -87 -142 -155 -275
-201 -87 -30 -328 -33 -432 -6 -210 55 -321 114 -492 260 -112 96 -207 145
-307 158 -116 15 -182 0 -302 -68 -105 -59 -191 -39 -191 44 0 35 28 73 53 73
20 0 61 27 61 41 0 5 -9 18 -20 29 -39 39 -121 19 -165 -39 -16 -20 -20 -42
-20 -97 0 -61 4 -75 27 -106 44 -57 93 -83 160 -82 47 1 73 9 159 52 91 46
109 52 166 52 37 0 86 -8 119 -20 52 -18 83 -39 269 -185 187 -146 523 -257
729 -241 99 7 193 27 266 55 76 29 80 28 80 -22 0 -59 36 -125 89 -162 37 -26
52 -30 104 -30 105 1 173 61 199 176 6 30 13 56 14 57 1 2 28 -6 60 -18 141
-52 289 -68 439 -45 137 20 240 52 375 117 84 41 201 116 230 148 27 30 136
112 180 135 45 24 70 30 140 33 85 4 85 4 174 -42 122 -63 160 -72 228 -52 30
9 65 27 80 43 55 57 74 153 43 213 -36 69 -130 104 -168 62 -28 -31 -21 -51
28 -72 52 -22 72 -57 54 -93 -39 -75 -94 -78 -204 -11 -62 38 -89 48 -148 55
-91 12 -190 -2 -272 -39 -52 -23 -181 -118 -237 -174 -55 -55 -211 -139 -330
-177 -236 -75 -479 -62 -653 34 -104 58 -165 139 -165 219 0 47 17 114 41 157
5 10 13 66 18 124 4 58 12 110 17 115 6 6 37 15 69 20 81 15 195 55 280 98 39
20 72 39 75 42 3 3 23 17 45 32 54 37 157 139 209 208 123 162 187 322 217
548 22 162 -24 401 -106 557 -126 237 -332 412 -570 486 -74 23 -226 49 -287
49 -21 0 -38 2 -38 4 0 2 12 25 28 52 24 44 27 59 27 139 -1 128 -39 225 -90
225 -12 0 -29 -8 -38 -17z m-99 -645 c18 -18 17 -678 0 -700 -7 -8 -89 -64
-183 -124 -93 -60 -213 -137 -265 -171 -52 -35 -103 -63 -112 -63 -74 0 -116
319 -67 506 75 285 306 499 610 563 3 0 10 -4 17 -11z m397 -21 c242 -81 413
-253 497 -499 18 -54 22 -87 22 -228 1 -146 -2 -172 -21 -224 -21 -55 -48 -96
-63 -96 -7 0 -316 201 -335 218 -6 5 -15 11 -21 13 -5 2 -53 32 -106 67 -93
61 -97 65 -103 105 -9 60 -2 649 8 665 9 14 30 10 122 -21z m-387 -1248 c3
-290 7 -279 -90 -254 -81 20 -155 55 -232 106 -79 54 -116 89 -116 110 0 11
49 50 138 110 75 51 164 112 197 135 103 73 100 79 103 -207z m487 114 c139
-92 205 -142 205 -154 0 -22 -91 -98 -174 -143 -68 -39 -153 -72 -208 -81 -54
-10 -58 5 -58 213 0 193 8 302 21 302 5 0 101 -61 214 -137z"/>
<path d="M2448 5581 c-44 -9 -68 -27 -68 -51 0 -31 22 -37 140 -43 169 -8 253
-40 350 -132 30 -30 68 -78 85 -109 33 -61 62 -77 100 -52 56 37 32 101 -80
211 -122 121 -234 172 -393 179 -53 3 -114 2 -134 -3z"/>
<path d="M5025 5579 c-27 -6 -88 -28 -135 -51 -68 -33 -101 -57 -171 -128 -63
-62 -91 -98 -99 -127 -15 -48 -2 -80 35 -89 35 -9 68 16 94 68 43 87 136 168
239 206 51 19 93 26 177 30 118 5 145 12 145 41 0 40 -34 54 -137 57 -54 2
-120 -2 -148 -7z"/>
<path d="M2487 5170 c-87 -15 -161 -43 -242 -91 -92 -54 -154 -116 -217 -214
-58 -92 -73 -131 -108 -274 -11 -41 -15 -285 -5 -300 2 -4 9 -34 15 -67 6 -32
15 -79 19 -104 42 -225 94 -385 159 -489 44 -70 244 -350 270 -377 10 -11 31
-42 46 -68 88 -157 228 -284 406 -368 130 -61 189 -80 305 -101 110 -19 319
-12 380 13 107 44 163 85 152 114 -4 9 -27 26 -52 38 -25 12 -45 27 -45 33 0
6 -14 19 -31 29 -35 21 -206 158 -254 203 -73 69 -206 178 -267 219 -138 92
-260 135 -462 164 -224 32 -285 52 -350 118 -70 69 -103 169 -92 281 11 116
17 145 42 199 13 29 24 55 24 58 0 25 104 144 167 191 21 15 40 30 43 33 3 3
39 28 80 55 176 116 266 249 290 429 9 69 8 99 -1 137 -7 27 -16 49 -20 49 -4
0 -9 10 -13 23 -14 56 -126 87 -239 67z"/>
<path d="M5035 5166 c-114 -50 -138 -212 -63 -416 41 -111 132 -208 298 -320
119 -80 200 -165 244 -255 20 -41 36 -79 36 -85 0 -6 7 -34 16 -61 13 -39 16
-72 11 -142 -9 -146 -43 -216 -133 -275 -59 -40 -119 -57 -269 -77 -175 -24
-278 -51 -383 -102 -75 -37 -238 -143 -262 -172 -5 -6 -149 -134 -190 -169
-14 -11 -36 -31 -50 -43 -14 -12 -58 -46 -97 -76 -40 -31 -73 -58 -73 -62 0
-3 -23 -19 -50 -36 -65 -38 -64 -56 3 -98 69 -44 196 -77 292 -77 131 0 345
49 458 106 16 8 33 14 38 14 14 0 159 88 192 118 57 50 122 117 147 150 14 18
33 43 44 55 10 12 58 81 108 152 49 72 125 182 170 245 90 129 138 224 163
320 35 137 44 177 55 235 6 33 18 89 26 125 28 128 14 385 -27 495 -34 91 -89
181 -155 254 -65 70 -136 118 -254 170 -89 39 -238 52 -295 27z"/>
<path d="M6216 4732 c-18 -138 -54 -225 -128 -306 -93 -103 -99 -110 -124
-152 -27 -47 -65 -153 -83 -234 -14 -64 -38 -141 -58 -187 -7 -17 -13 -36 -13
-41 0 -6 44 9 98 34 53 25 113 53 132 62 63 28 165 98 203 138 20 21 47 59 59
84 39 81 56 216 39 299 -16 75 -41 171 -51 196 -4 11 -18 47 -31 80 -30 81
-35 84 -43 27z"/>
<path d="M1446 4744 c-7 -25 -38 -101 -57 -136 -5 -10 -9 -29 -9 -43 0 -14 -7
-39 -15 -56 -24 -45 -22 -248 3 -314 50 -136 110 -201 255 -274 55 -28 106
-51 113 -51 8 0 14 -4 14 -10 0 -5 6 -10 13 -10 7 0 37 -12 66 -26 29 -14 55
-23 57 -21 3 2 -6 26 -20 53 -13 27 -36 94 -51 149 -14 55 -31 118 -37 140
-15 56 -66 158 -97 192 -106 116 -130 146 -146 180 -34 70 -55 137 -55 173 0
72 -22 105 -34 54z"/>
<path d="M2440 4202 c-115 -35 -158 -92 -179 -237 -6 -38 -13 -84 -17 -101 -8
-44 6 -46 131 -24 117 22 163 39 203 80 32 32 57 122 42 150 -6 10 -10 27 -10
38 0 46 -117 110 -170 94z"/>
<path d="M5160 4193 c-47 -19 -90 -90 -90 -149 0 -76 64 -160 139 -182 53 -16
189 -40 209 -38 24 4 27 69 8 162 -23 112 -62 171 -131 200 -34 14 -107 18
-135 7z"/>
<path d="M1469 3749 c-6 -80 21 -206 61 -294 55 -117 148 -183 310 -220 72
-16 99 -22 193 -46 58 -15 199 -69 217 -84 26 -21 38 -25 36 -13 -4 20 -19 52
-26 58 -3 3 -17 25 -29 50 -34 68 -61 110 -116 180 -96 125 -115 145 -185 197
-107 78 -197 116 -355 148 -43 9 -85 21 -92 27 -10 8 -13 7 -14 -3z"/>
<path d="M6205 3751 c-6 -6 -46 -17 -90 -26 -101 -21 -146 -36 -241 -81 -90
-43 -99 -49 -189 -139 -78 -78 -105 -110 -105 -125 0 -6 -5 -10 -10 -10 -6 0
-14 -8 -17 -17 -4 -10 -11 -22 -15 -28 -7 -9 -56 -83 -85 -130 -15 -25 -39
-74 -47 -99 -6 -17 -5 -17 11 -5 10 8 20 16 23 20 17 19 195 80 285 98 178 35
209 44 280 79 38 18 105 77 132 117 41 61 79 187 90 303 5 50 -2 63 -22 43z"/>
<path d="M1385 3025 c-50 -49 -22 -115 48 -115 30 0 39 5 52 30 21 40 19 57
-10 85 -31 32 -59 32 -90 0z"/>
<path d="M6212 3034 c-16 -11 -22 -25 -22 -52 1 -51 19 -72 63 -72 64 0 89 69
42 115 -28 29 -51 31 -83 9z"/>
<path d="M1884 2501 c-117 -53 -110 -206 11 -256 82 -35 185 31 185 118 0 51
-30 102 -75 128 -48 28 -77 31 -121 10z"/>
<path d="M2385 2495 c-71 -70 29 -187 108 -125 39 31 38 82 -4 121 -38 35 -72
37 -104 4z"/>
<path d="M5739 2500 c-53 -28 -73 -64 -73 -132 -1 -52 3 -61 31 -90 26 -25 42
-32 86 -36 65 -5 109 14 137 61 42 69 15 159 -59 197 -49 25 -75 25 -122 0z"/>
<path d="M5181 2466 c-32 -34 -26 -101 11 -129 24 -18 32 -19 66 -9 61 18 81
85 41 136 -28 35 -86 36 -118 2z"/>
<path d="M4946 2338 c-27 -23 -27 -23 -13 -78 8 -30 13 -57 11 -59 -2 -2 -30
12 -63 32 -60 36 -60 36 -83 17 l-23 -20 24 -18 c13 -11 51 -34 85 -52 46 -24
72 -46 100 -86 20 -30 41 -54 45 -54 4 0 17 9 29 21 l22 20 -31 45 c-30 43
-59 144 -59 204 0 46 -14 54 -44 28z"/>
<path d="M2784 2302 c-6 -4 -21 -25 -34 -47 -13 -22 -48 -78 -78 -123 -54 -86
-58 -103 -24 -121 17 -9 24 -3 56 44 20 30 39 55 43 55 13 0 73 -45 73 -55 0
-5 -11 -30 -25 -54 -31 -53 -31 -67 -3 -82 18 -10 24 -8 39 12 10 13 19 28 19
32 0 4 31 54 69 111 l70 104 -23 21 c-22 20 -23 20 -38 4 -8 -10 -24 -33 -34
-51 -16 -27 -23 -32 -44 -27 -14 4 -35 16 -47 27 l-23 21 30 52 c23 41 27 55
18 62 -24 18 -34 22 -44 15z"/>
<path d="M5505 2223 c-17 -14 -62 -56 -100 -92 -39 -36 -92 -86 -118 -110 -27
-24 -47 -50 -45 -59 2 -8 17 -26 35 -39 l32 -25 53 50 c62 58 54 60 143 -43
70 -81 108 -125 158 -180 l36 -40 43 43 c32 32 40 46 33 56 -6 8 -65 78 -132
155 -68 77 -123 146 -123 154 0 7 20 33 45 57 l45 44 -27 28 c-33 35 -41 35
-78 1z"/>
<path d="M4663 2190 c-28 -11 -28 -20 -4 -68 44 -88 42 -89 -57 -36 -119 64
-127 57 -77 -62 46 -110 62 -153 70 -181 7 -25 25 -29 55 -13 18 10 18 14 -14
90 -19 44 -30 80 -24 80 5 0 48 -21 94 -46 58 -31 90 -43 104 -39 12 4 19 10
18 13 -2 4 -33 67 -69 139 -35 73 -66 132 -69 132 -3 0 -15 -4 -27 -9z"/>
<path d="M2305 2167 c-55 -66 -129 -152 -171 -197 -83 -89 -164 -182 -164
-189 0 -4 19 -26 43 -49 l43 -42 74 90 c41 49 79 90 86 90 14 0 174 -138 174
-150 0 -9 -54 -84 -97 -134 -18 -22 -33 -47 -33 -56 0 -18 60 -80 77 -80 9 0
97 114 262 340 14 19 33 44 43 54 10 11 18 25 18 31 0 11 -71 85 -82 85 -3 0
-29 -31 -58 -70 -29 -38 -56 -70 -60 -70 -11 0 -115 87 -148 122 l-23 26 55
60 c31 33 56 65 56 72 0 15 -61 80 -75 80 -5 -1 -14 -6 -20 -13z"/>
<path d="M3147 2069 c-8 -11 -37 -43 -63 -72 -27 -29 -67 -72 -88 -96 l-39
-44 22 -18 c26 -22 44 -16 60 17 16 35 33 38 79 15 39 -20 40 -22 35 -60 -5
-37 -3 -41 22 -51 15 -6 30 -9 32 -6 7 6 22 189 23 262 0 47 -4 63 -16 68 -29
11 -53 6 -67 -15z m19 -144 c-5 -14 -42 -10 -51 5 -3 5 7 23 22 41 l28 33 3
-33 c2 -18 1 -39 -2 -46z"/>
<path d="M4250 2042 c-30 -14 -57 -37 -68 -59 -18 -33 -14 -109 8 -158 28 -62
62 -85 123 -85 44 0 53 4 83 36 30 31 34 42 34 87 0 59 -25 121 -63 155 -26
24 -90 37 -117 24z m77 -74 c33 -36 49 -100 33 -138 -11 -28 -17 -31 -49 -28
-31 3 -39 9 -58 48 -27 52 -29 87 -7 118 20 28 55 28 81 0z"/>
<path d="M3431 1972 c-26 -116 -51 -255 -48 -259 3 -2 17 -5 33 -6 24 -2 29 2
32 23 12 111 22 113 72 14 26 -51 41 -70 58 -72 29 -4 28 11 -3 82 -29 65 -30
76 -12 76 8 0 23 10 34 23 65 70 17 147 -99 161 l-56 6 -11 -48z m120 -31 c33
-27 16 -55 -35 -59 -33 -3 -36 -1 -36 22 0 58 28 72 71 37z"/>
<path d="M3976 1978 c-8 -13 -25 -44 -37 -71 -13 -26 -27 -46 -32 -44 -5 1
-25 27 -45 57 -41 60 -66 80 -81 65 -5 -6 -11 -80 -12 -165 l-2 -155 34 0 34
0 -3 88 c-2 48 0 87 5 87 4 0 21 -20 36 -45 16 -25 34 -45 40 -45 7 1 23 24
37 52 25 51 25 51 31 22 4 -16 7 -54 8 -85 1 -49 4 -57 22 -62 43 -11 46 -2
41 111 -6 170 -13 206 -39 210 -14 2 -27 -5 -37 -20z"/>
<path d="M5040 1866 c-92 -20 -159 -65 -192 -129 -61 -119 12 -322 139 -382
28 -13 54 -16 112 -13 128 7 221 73 257 181 20 60 15 105 -21 186 -35 76 -109
148 -163 156 -20 4 -46 8 -57 9 -11 2 -45 -2 -75 -8z m94 -115 c38 -24 65 -60
88 -115 22 -55 22 -94 -2 -133 -38 -62 -112 -80 -170 -40 -44 29 -100 130
-100 180 0 99 102 158 184 108z"/>
<path d="M2805 1743 c-153 -365 -164 -425 -88 -508 70 -78 205 -115 291 -80
41 18 65 43 88 95 24 54 114 329 114 348 0 19 -89 57 -102 44 -5 -5 -28 -67
-53 -140 -64 -191 -83 -231 -117 -248 -62 -32 -155 35 -145 106 5 37 83 243
118 312 25 49 21 62 -30 88 -54 27 -58 26 -76 -17z"/>
<path d="M4535 1651 c-68 -14 -225 -73 -225 -85 0 -6 7 -36 15 -66 24 -88 82
-330 95 -392 6 -32 16 -60 21 -64 13 -8 84 5 103 19 13 10 14 18 6 47 -8 28
-40 168 -40 177 0 1 30 12 68 23 133 42 170 73 179 152 14 120 -99 216 -222
189z m75 -121 c50 -50 -4 -135 -91 -142 -30 -3 -34 0 -44 37 -28 96 -28 94 7
110 49 21 104 19 128 -5z"/>
<path d="M3366 1562 c-7 -12 -79 -532 -74 -537 13 -13 163 -36 240 -36 98 0
134 13 172 64 32 44 29 133 -7 180 -15 20 -27 39 -27 42 0 3 11 21 25 39 18
24 25 45 25 80 0 92 -46 125 -205 150 -60 10 -118 19 -127 21 -10 2 -20 0 -22
-3z m199 -116 c32 -14 35 -19 35 -55 0 -47 -18 -61 -77 -61 -56 0 -67 11 -59
56 4 22 9 47 12 57 7 21 42 22 89 3z m-4 -219 c32 -21 34 -27 34 -77 0 -48 -3
-56 -25 -68 -29 -15 -130 -8 -141 10 -8 12 -3 60 12 121 9 35 12 37 48 37 23
0 51 -9 72 -23z"/>
<path d="M3939 1502 c-37 -19 -61 -40 -76 -68 -52 -91 -17 -155 124 -224 103
-49 123 -65 123 -95 0 -53 -91 -71 -175 -35 -26 11 -50 18 -55 15 -13 -8 -20
-66 -11 -84 15 -27 120 -55 178 -47 102 15 178 71 183 136 7 84 -24 131 -112
169 -90 39 -122 58 -142 84 -18 24 -18 27 -2 51 22 35 57 41 118 21 50 -16 53
-16 65 2 61 82 -100 137 -218 75z"/>
</g>
</svg>
